<?xml version="1.0" standalone="no"?>
<!DOCTYPE svg PUBLIC "-//W3C//DTD SVG 20010904//EN"
 "http://www.w3.org/TR/2001/REC-SVG-20010904/DTD/svg10.dtd">
<svg version="1.0" xmlns="http://www.w3.org/2000/svg"
 width="1100.000000pt" height="1100.000000pt" viewBox="0 0 1100.000000 1100.000000"
 preserveAspectRatio="xMidYMid meet">
<metadata>
Created by potrace 1.14, written by Peter Selinger 2001-2017
</metadata>
<g transform="translate(0.000000,1100.000000) scale(0.100000,-0.100000)"
fill="#000000" stroke="none">
<path d="M5115 10514 c-94 -7 -208 -20 -255 -29 -113 -23 -216 -44 -265 -55
-44 -9 -148 -31 -265 -55 -41 -8 -93 -19 -115 -24 -53 -12 -190 -41 -240 -51
-22 -4 -76 -16 -120 -25 -44 -10 -107 -23 -140 -30 -33 -7 -105 -25 -160 -40
-55 -14 -136 -35 -180 -46 -44 -11 -96 -24 -115 -28 -19 -5 -55 -12 -80 -16
-25 -4 -58 -11 -75 -15 -146 -43 -272 -48 -378 -15 -26 8 -76 19 -110 25 -82
15 -138 34 -220 76 -108 55 -153 40 -96 -33 17 -21 58 -81 92 -133 71 -111
221 -306 276 -358 69 -67 113 -128 99 -139 -7 -6 -137 -71 -288 -146 -322
-160 -377 -190 -467 -251 -219 -149 -434 -307 -533 -392 -107 -91 -377 -373
-453 -473 -31 -42 -78 -103 -105 -136 -26 -33 -88 -141 -138 -240 -110 -218
-181 -351 -204 -385 -10 -14 -50 -83 -90 -155 -113 -204 -288 -463 -367 -546
-32 -34 -44 -53 -41 -70 3 -27 -28 -26 283 -10 148 7 237 20 322 46 31 10 58
-1 45 -18 -13 -17 -67 -182 -80 -247 -21 -100 -35 -184 -38 -230 -5 -49 -28
-273 -44 -410 -5 -47 -12 -118 -15 -159 -4 -40 -10 -83 -15 -95 -4 -11 -13
-46 -20 -76 -26 -113 -73 -244 -117 -325 -46 -84 -168 -195 -265 -239 -43 -20
-54 -42 -34 -65 13 -14 39 -16 193 -14 196 4 254 16 401 87 117 58 164 78 169
73 2 -3 11 -67 19 -144 8 -76 18 -151 23 -168 31 -109 97 -300 122 -353 35
-77 136 -229 225 -337 96 -118 159 -216 188 -292 65 -175 75 -353 24 -452 -54
-103 -30 -119 88 -61 100 50 245 144 297 194 45 42 55 44 61 13 2 -12 9 -48
15 -81 17 -96 39 -106 112 -54 55 41 73 62 100 116 11 23 23 42 25 42 3 0 34
-25 69 -55 89 -75 169 -123 315 -188 190 -86 465 -160 730 -197 41 -6 102 -15
135 -20 33 -5 153 -17 266 -26 240 -19 832 -14 1129 9 96 7 180 12 186 10 15
-5 25 -108 16 -153 -6 -27 -14 -37 -37 -44 -17 -4 -37 -12 -45 -16 -9 -4 -31
-11 -50 -15 -19 -4 -39 -10 -45 -14 -5 -4 -35 -15 -65 -25 -30 -10 -69 -24
-87 -32 -17 -8 -35 -14 -40 -14 -5 0 -27 -8 -49 -19 -21 -10 -57 -26 -79 -36
-63 -27 -216 -106 -257 -131 -31 -20 -187 -104 -246 -132 -76 -38 -77 -39 -84
-94 -4 -29 -12 -71 -18 -93 -6 -22 -15 -58 -21 -80 -5 -22 -13 -51 -18 -65 -8
-23 -30 -100 -51 -175 -5 -16 -12 -55 -15 -85 -4 -30 -14 -84 -22 -120 -8 -36
-21 -94 -28 -130 -15 -74 -38 -167 -55 -225 -11 -37 -23 -90 -49 -210 -13 -59
-30 -126 -66 -255 -15 -52 -33 -120 -40 -150 -16 -69 -83 -325 -95 -365 -5
-16 -16 -57 -26 -90 -9 -33 -25 -87 -36 -120 -11 -33 -24 -72 -28 -87 l-9 -28
856 0 855 0 -7 78 c-9 96 -8 185 3 732 10 488 15 524 74 611 21 31 38 63 38
72 0 9 5 19 10 22 6 3 10 13 10 21 0 14 12 43 75 179 51 110 65 145 65 159 0
8 5 18 10 21 6 3 10 15 10 26 0 19 5 20 88 13 48 -3 91 -10 96 -14 5 -5 12
-41 17 -82 5 -40 11 -84 14 -98 3 -14 10 -61 15 -105 5 -44 16 -127 25 -185 9
-58 20 -150 25 -205 5 -55 13 -131 18 -168 l10 -68 -54 -117 c-30 -64 -59
-126 -64 -137 -40 -89 -60 -136 -60 -141 0 -3 -6 -20 -14 -37 -8 -18 -22 -57
-32 -87 -10 -30 -21 -59 -25 -65 -4 -5 -10 -28 -14 -50 -4 -22 -11 -44 -15
-50 -4 -5 -11 -26 -15 -45 -4 -19 -11 -41 -15 -50 -26 -52 -62 -132 -79 -177
l-21 -53 905 0 c716 0 906 3 909 13 36 126 44 146 57 126 5 -8 9 -32 9 -54 0
-22 3 -50 6 -62 l6 -23 564 0 c310 0 564 3 564 8 0 4 -9 32 -21 62 -11 30 -23
64 -26 75 -2 11 -8 29 -13 40 -16 40 -58 181 -65 215 -10 55 -76 261 -130 410
-25 71 -101 313 -115 370 -25 99 -62 221 -80 265 -12 27 -109 321 -161 485
-23 74 -59 178 -80 230 -21 52 -45 120 -54 150 -9 30 -20 64 -25 75 -4 11 -16
46 -26 77 -16 52 -22 59 -68 84 -28 15 -62 35 -77 45 -31 22 -396 207 -464
236 -101 42 -196 69 -294 83 -44 6 -70 15 -79 27 -7 10 -40 59 -73 108 -59 89
-59 91 -57 155 3 59 5 65 28 72 96 28 137 40 230 68 58 17 114 35 125 40 11 5
43 16 70 25 28 10 59 21 70 25 11 4 61 23 110 41 50 18 94 36 100 41 5 4 15 8
21 8 7 0 43 14 81 31 37 17 84 38 103 46 19 8 88 42 154 75 65 32 119 58 121
56 1 -2 10 -34 19 -73 67 -271 85 -317 166 -414 101 -120 217 -206 423 -314
112 -59 163 -70 187 -42 13 15 3 63 -31 153 -12 31 -11 295 0 341 6 20 17 70
26 111 22 101 35 140 46 140 5 0 9 -6 9 -14 0 -25 104 -110 182 -149 42 -22
121 -50 175 -64 54 -13 123 -31 153 -39 77 -21 310 -42 545 -50 206 -6 249 -1
262 31 5 14 -20 86 -58 170 -38 85 -47 174 -28 279 27 147 60 224 149 347 26
36 71 103 100 150 29 46 81 127 116 179 72 110 160 287 224 455 17 44 37 94
44 110 47 109 79 214 99 325 34 188 37 225 37 414 0 108 3 196 6 196 3 0 36
-27 72 -61 63 -57 170 -129 194 -129 5 0 24 -6 41 -14 18 -8 64 -26 103 -40
65 -22 74 -23 93 -10 26 18 27 41 4 74 -24 34 -83 131 -83 137 0 3 -6 19 -14
36 -30 66 -38 104 -71 312 -8 50 -22 117 -30 150 -9 33 -20 116 -25 185 -14
193 -29 353 -36 370 -3 8 -9 60 -15 115 -5 55 -16 147 -25 205 -8 58 -19 150
-24 205 -12 129 -34 280 -55 375 -10 41 -21 91 -25 112 -15 77 -151 305 -245
412 -14 16 -25 33 -25 37 0 9 74 101 206 260 205 244 269 343 247 377 -9 14
-25 16 -109 14 -55 -2 -117 -8 -139 -13 -61 -13 -270 -10 -366 5 -88 15 -146
39 -419 176 -221 110 -316 167 -441 262 -84 63 -164 114 -240 150 -133 65
-289 139 -339 161 -49 21 -336 116 -385 127 -22 5 -69 16 -105 25 -226 54
-304 65 -512 75 -203 9 -318 -2 -405 -40 -121 -53 -191 -78 -199 -71 -5 3 -16
20 -25 36 -18 32 -121 107 -259 188 -145 85 -171 97 -264 128 -81 27 -196 68
-251 89 -56 22 -259 68 -425 95 -289 48 -406 53 -715 29z m560 -68 c233 -33
257 -37 435 -81 118 -29 186 -51 205 -65 6 -4 26 -11 45 -15 19 -4 40 -11 45
-15 6 -3 37 -15 70 -25 81 -24 154 -59 247 -117 43 -26 80 -48 82 -48 2 0 39
-24 81 -52 49 -34 85 -67 98 -90 l21 -38 -28 -29 c-16 -16 -25 -34 -22 -40 9
-14 66 -15 66 -1 0 6 13 10 30 10 23 0 31 5 35 23 5 18 25 30 93 57 48 19 92
37 97 41 6 3 43 14 84 24 63 15 102 17 275 12 110 -4 212 -8 226 -11 117 -22
263 -53 315 -67 22 -5 65 -16 95 -23 115 -28 370 -120 485 -175 66 -32 167
-82 225 -110 67 -33 155 -89 245 -156 126 -95 170 -120 440 -254 341 -169 337
-168 425 -180 71 -10 366 -8 473 4 84 10 86 0 20 -82 -55 -67 -50 -61 -105
-133 -24 -30 -59 -73 -79 -95 -20 -22 -50 -56 -65 -75 -16 -19 -31 -37 -34
-40 -3 -3 -21 -25 -40 -50 -46 -61 -51 -63 -80 -37 -48 44 -95 73 -145 91 -27
10 -64 24 -82 32 -17 8 -37 14 -45 14 -8 0 -19 5 -25 11 -5 5 -34 9 -64 7 -43
-2 -55 -7 -57 -22 -5 -23 14 -36 54 -36 29 0 87 -18 124 -39 9 -5 31 -12 50
-16 58 -13 77 -26 180 -123 64 -60 220 -264 220 -287 0 -3 15 -30 34 -60 19
-29 39 -75 45 -102 6 -26 15 -68 21 -93 14 -58 15 -64 24 -135 4 -33 11 -78
17 -100 5 -22 14 -94 19 -160 5 -66 14 -149 20 -185 18 -107 62 -502 80 -715
5 -60 16 -141 24 -180 22 -105 23 -111 41 -225 17 -106 38 -195 57 -240 23
-54 43 -95 49 -100 15 -12 28 -49 20 -54 -5 -3 -22 1 -37 9 -16 8 -35 15 -42
15 -13 0 -20 3 -83 36 -62 33 -270 222 -314 288 -11 16 -30 41 -42 55 -12 15
-29 46 -38 69 -19 48 -37 53 -60 18 -15 -23 -15 -28 11 -80 15 -31 43 -74 62
-96 52 -62 65 -139 59 -374 -7 -277 -42 -469 -114 -636 -8 -19 -19 -44 -24
-55 -4 -11 -29 -73 -54 -138 -48 -124 -140 -313 -162 -335 -7 -7 -13 -20 -13
-28 0 -8 -4 -14 -10 -14 -5 0 -10 -4 -10 -10 0 -5 -13 -29 -29 -52 -106 -159
-263 -400 -283 -438 -26 -47 -49 -118 -67 -208 -14 -67 -14 -229 -1 -237 6 -3
10 -15 10 -25 0 -11 6 -34 14 -52 8 -18 21 -49 30 -70 31 -71 40 -68 -196 -62
-117 2 -242 9 -278 14 -36 5 -96 13 -135 18 -38 6 -88 15 -110 22 -22 6 -65
17 -95 25 -30 8 -73 18 -96 24 -39 10 -160 71 -200 101 -10 8 -34 34 -53 58
-31 40 -35 42 -87 42 -53 0 -54 -1 -54 -28 0 -16 -3 -32 -7 -36 -5 -4 -14 -35
-21 -69 -7 -34 -17 -82 -23 -107 -32 -141 -33 -278 -3 -452 4 -25 2 -38 -5
-38 -24 0 -243 124 -279 157 -7 7 -17 13 -21 13 -17 0 -144 140 -164 181 -12
24 -34 56 -49 71 -15 14 -36 46 -47 70 -17 37 -28 76 -72 248 -17 68 -13 76
54 116 168 102 309 208 413 313 23 22 46 41 52 41 6 0 28 -12 49 -26 21 -14
66 -39 100 -55 59 -28 69 -29 197 -29 75 0 155 4 178 10 24 5 66 14 93 20 28
6 61 14 75 17 27 6 116 44 165 70 48 26 168 118 194 149 13 16 47 56 76 89 96
111 149 210 194 360 15 48 9 489 -7 575 -15 77 -38 178 -52 224 -49 165 -182
333 -315 400 -108 54 -129 57 -347 53 -112 -2 -223 -9 -248 -15 -25 -6 -55
-14 -68 -16 -32 -7 -112 -48 -112 -58 0 -4 -6 -8 -14 -8 -7 0 -19 -7 -26 -15
-7 -8 -25 -15 -41 -15 -16 0 -29 -3 -30 -7 0 -5 -2 -18 -3 -31 -2 -12 0 -43 4
-69 7 -46 -12 -194 -29 -223 -4 -9 -12 -30 -15 -47 -30 -134 -182 -332 -331
-429 -33 -21 -62 -41 -65 -44 -18 -20 -186 -118 -191 -112 -4 4 -3 76 3 160 7
124 6 182 -7 295 -27 245 -41 329 -66 412 -5 17 -12 52 -15 77 -6 41 -3 53 30
106 38 62 116 142 139 142 21 0 48 35 42 52 -7 18 -48 38 -78 38 -13 0 -27 4
-33 9 -10 10 -48 19 -284 64 -41 8 -111 24 -155 36 -44 11 -109 21 -145 21
-36 0 -81 5 -100 11 -19 5 -124 12 -233 15 -109 2 -204 7 -210 11 -44 27 -283
206 -333 250 -34 29 -64 53 -68 53 -4 0 -12 5 -19 10 -7 6 -41 33 -77 59 -36
27 -78 63 -94 80 -17 17 -35 31 -40 31 -19 1 -195 247 -196 272 0 4 12 14 28
22 40 20 269 96 292 96 10 0 21 4 24 9 3 5 20 11 38 14 18 3 69 13 113 22 85
18 206 36 370 57 181 23 365 14 560 -26 321 -67 378 -76 393 -64 19 16 15 25
-20 38 -18 7 -42 16 -53 20 -11 5 -47 13 -80 19 -33 6 -78 15 -100 20 -114 26
-197 43 -260 52 -87 12 -375 12 -475 0 -206 -26 -249 -32 -295 -42 -27 -6 -63
-14 -80 -19 -16 -5 -50 -12 -75 -15 -24 -4 -51 -11 -60 -15 -8 -5 -42 -16 -75
-25 -63 -18 -134 -41 -172 -56 -13 -5 -33 -13 -45 -18 -37 -14 -223 -104 -228
-110 -3 -4 -13 -10 -22 -16 -59 -35 -188 -129 -215 -157 -65 -69 -37 -95 42
-38 152 110 320 214 333 206 4 -2 15 -20 26 -40 18 -33 18 -37 2 -70 -9 -19
-16 -37 -16 -40 0 -3 -11 -29 -24 -58 -49 -112 -67 -182 -66 -272 0 -39 -4
-111 -10 -161 -6 -49 -14 -159 -17 -243 l-5 -153 -47 -31 c-115 -79 -171 -139
-171 -187 0 -29 11 -26 50 14 42 43 64 46 57 8 -3 -16 -13 -66 -22 -113 -25
-128 -29 -170 -16 -183 16 -16 42 19 65 87 24 70 69 166 79 166 4 0 7 -11 7
-25 0 -14 5 -44 10 -67 6 -24 19 -90 31 -148 11 -58 27 -136 35 -175 29 -138
35 -171 49 -265 7 -52 17 -107 20 -123 7 -25 5 -27 -26 -27 -38 0 -99 15 -144
35 -16 8 -66 28 -110 45 -119 46 -138 57 -280 156 -184 129 -219 167 -330 347
-37 61 -52 77 -71 77 -35 0 -31 -30 13 -98 31 -49 36 -66 38 -124 1 -37 7 -80
12 -95 6 -15 18 -55 28 -88 9 -33 21 -68 27 -79 14 -26 -4 -41 -30 -27 -11 6
-29 11 -40 11 -10 0 -40 11 -66 25 -26 14 -51 25 -56 25 -15 0 -248 108 -260
120 -3 3 -16 10 -30 16 -14 6 -45 28 -69 48 -24 20 -53 42 -65 48 -63 34 -110
86 -147 163 -21 44 -47 94 -59 112 -29 44 -12 49 68 21 54 -18 79 -35 127 -83
33 -34 74 -85 91 -115 17 -30 43 -77 58 -103 19 -33 33 -47 44 -45 23 5 19 61
-12 152 -34 99 -46 148 -40 158 3 4 23 -2 44 -14 51 -30 67 -16 41 32 -41 77
-267 152 -513 170 -124 9 -138 13 -138 36 0 8 -4 22 -9 32 -6 9 -20 51 -31 92
-30 102 -43 143 -51 155 -3 6 -10 28 -14 50 -4 22 -10 45 -15 50 -4 6 -15 53
-25 105 -9 52 -21 111 -26 130 -4 19 -11 76 -14 126 l-6 91 153 7 c144 7 201
18 182 36 -18 15 -130 30 -231 30 l-103 0 5 118 c3 64 10 142 16 172 12 64 55
209 77 260 22 52 128 269 154 315 73 127 89 153 112 174 29 27 32 41 14 59
-15 15 -61 -11 -92 -53 -23 -30 -89 -150 -155 -280 -20 -38 -39 -71 -43 -73
-5 -2 -8 -10 -8 -19 0 -8 -13 -42 -28 -76 -15 -34 -36 -89 -46 -122 -11 -33
-22 -69 -27 -80 -4 -11 -10 -38 -14 -60 -4 -22 -11 -62 -15 -90 -5 -27 -9 -93
-9 -146 l-1 -97 -112 -10 c-62 -6 -140 -14 -173 -17 -129 -11 -264 -35 -425
-76 -19 -4 -64 -15 -100 -23 -36 -8 -81 -19 -100 -25 -19 -5 -55 -15 -80 -21
-25 -7 -54 -15 -65 -20 -11 -4 -42 -15 -70 -25 -27 -9 -59 -21 -70 -26 -11 -4
-45 -18 -75 -29 -75 -28 -100 -40 -137 -68 -33 -23 -44 -52 -21 -52 12 0 176
60 235 86 17 8 37 14 45 14 8 0 18 3 22 7 14 14 188 65 336 99 36 8 83 19 105
25 187 47 362 73 568 84 l117 6 1 -73 c1 -40 0 -82 -1 -93 -2 -20 -133 -208
-219 -314 -112 -140 -263 -300 -386 -411 -27 -25 -96 -89 -153 -143 -57 -53
-108 -97 -113 -97 -22 0 -129 -57 -214 -114 -50 -34 -100 -66 -110 -72 -11 -6
-42 -23 -69 -38 -148 -82 -256 -167 -256 -201 0 -19 6 -26 28 -30 62 -13 98
-25 117 -39 19 -15 17 -18 -50 -84 -38 -37 -91 -85 -117 -106 -45 -36 -60 -67
-38 -81 5 -3 18 -1 29 4 15 9 22 6 34 -13 15 -22 14 -24 -60 -72 -82 -53 -125
-105 -168 -199 -39 -85 -54 -139 -66 -230 -15 -107 -15 -122 0 -255 17 -152
32 -199 86 -276 74 -103 135 -156 236 -205 106 -51 122 -72 103 -128 -14 -42
-79 -121 -99 -121 -9 0 -16 15 -20 38 -3 20 -12 59 -20 86 -8 26 -15 55 -15
64 0 20 -29 52 -47 52 -7 0 -13 -6 -13 -13 0 -29 -33 -78 -78 -118 -53 -46
-199 -144 -236 -158 -27 -11 -41 -4 -27 13 13 17 20 165 11 221 -27 159 -63
259 -133 365 -44 66 -140 192 -175 228 -79 84 -203 320 -237 452 -3 14 -10 34
-15 45 -9 20 -19 61 -45 185 -20 101 -28 339 -15 460 14 124 14 128 1 203 -24
146 -47 202 -78 190 -17 -7 -14 -69 8 -158 15 -57 15 -120 3 -285 l-9 -115
-65 -32 c-141 -69 -224 -106 -273 -121 -56 -17 -267 -29 -267 -15 1 4 21 24
46 43 25 19 66 60 91 90 45 54 123 202 123 233 0 9 4 18 9 21 5 3 11 16 14 28
3 13 13 48 22 78 25 81 45 184 55 280 5 47 16 150 25 230 9 80 20 195 24 257
5 61 12 117 16 123 4 7 11 37 16 68 26 178 70 302 153 430 71 109 105 142 183
178 79 37 91 48 73 69 -18 22 -32 19 -116 -21 -74 -36 -132 -91 -181 -174 -20
-34 -42 -46 -108 -59 -27 -6 -70 -15 -95 -21 -25 -6 -63 -15 -85 -20 -52 -12
-325 -13 -325 -1 0 5 7 15 16 22 15 12 95 128 196 282 53 81 109 177 148 253
15 28 41 72 58 98 18 26 32 51 32 56 0 4 3 10 8 12 8 3 36 56 134 253 82 166
77 155 117 228 33 59 38 66 101 141 19 23 45 55 57 71 13 17 37 48 54 70 58
75 321 345 408 419 70 60 304 232 459 338 18 13 39 28 46 34 21 20 205 123
341 191 232 118 435 213 470 222 22 5 65 19 95 32 30 12 75 30 100 41 78 32
95 43 95 63 0 24 -37 32 -69 17 -75 -37 -173 -72 -200 -72 -17 0 -39 18 -74
58 -27 31 -69 77 -93 102 -24 25 -60 67 -79 93 -19 26 -39 53 -45 60 -17 21
-90 120 -125 169 -35 51 -34 69 3 50 23 -11 93 -30 212 -57 39 -8 86 -20 105
-26 62 -19 211 -4 400 41 25 5 77 17 115 25 98 20 141 30 210 50 33 9 87 23
120 31 33 9 78 20 100 25 22 6 72 17 110 24 64 13 153 32 260 54 22 5 76 17
120 26 114 24 156 33 185 40 26 6 70 15 200 41 41 8 93 19 115 24 147 33 214
43 405 60 237 21 395 19 565 -4z m65 -3543 c99 -124 199 -220 263 -252 34 -17
91 -56 127 -87 36 -31 109 -87 162 -126 54 -38 101 -74 104 -79 6 -11 2 -12
-86 -29 -90 -18 -133 -27 -220 -45 -41 -9 -88 -19 -105 -22 -16 -3 -34 -9 -40
-13 -5 -4 -27 -11 -49 -14 -21 -4 -46 -11 -55 -16 -9 -4 -38 -16 -66 -25 -52
-17 -55 -19 -148 -59 -32 -14 -62 -26 -68 -26 -12 0 -7 96 22 432 18 216 23
244 54 313 8 16 21 47 29 68 8 20 19 37 23 37 4 -1 28 -26 53 -57z m-2220
-437 c0 -20 16 -90 50 -211 11 -42 57 -187 87 -273 14 -41 22 -77 17 -82 -5
-4 -49 -11 -99 -14 -140 -9 -434 -48 -453 -60 -6 -3 -44 -12 -86 -20 -41 -8
-85 -20 -97 -27 -24 -13 -79 -30 -79 -24 0 5 15 20 115 110 114 104 300 314
428 487 56 75 105 137 110 137 4 1 7 -10 7 -23z m3065 -245 c8 -14 94 -71 106
-71 5 0 9 -4 9 -8 0 -4 15 -16 33 -27 17 -10 34 -21 37 -25 3 -4 25 -21 50
-39 48 -35 69 -64 70 -96 0 -12 4 -25 8 -30 39 -47 50 -284 18 -385 -10 -30
-22 -63 -27 -72 -5 -10 -9 -23 -9 -29 0 -16 -29 -76 -72 -147 -21 -34 -38 -67
-38 -72 0 -6 -4 -10 -9 -10 -5 0 -12 -8 -15 -18 -12 -38 -64 -78 -123 -94
-174 -49 -353 -47 -568 5 -97 23 -115 34 -195 115 -75 76 -116 143 -131 212
-25 118 -29 151 -29 226 0 46 2 84 5 84 2 0 23 -7 45 -16 44 -18 109 -15 185
7 45 13 108 74 136 134 45 95 0 305 -65 305 -6 0 2 7 18 15 15 8 67 19 114 25
46 5 87 12 90 15 10 9 351 5 357 -4z m344 -11 c31 -5 92 -14 136 -20 90 -13
153 -24 240 -42 l60 -13 3 -49 c2 -27 -2 -54 -7 -59 -6 -6 -11 -18 -11 -26 0
-25 -83 -161 -98 -161 -8 0 -47 23 -86 52 -208 152 -256 190 -256 198 0 4 -22
33 -50 63 -27 30 -47 57 -43 61 9 9 48 8 112 -4z m-922 -85 c13 -14 25 -38 29
-53 3 -15 10 -37 15 -50 16 -41 10 -91 -20 -157 -24 -52 -39 -70 -77 -95 -41
-26 -58 -30 -113 -30 -49 0 -75 5 -100 21 -30 18 -33 24 -28 57 6 54 64 206
99 263 16 27 30 49 31 49 1 0 20 7 42 15 51 19 94 12 122 -20z m-287 -83 c0
-4 -4 -12 -9 -17 -19 -22 -61 -166 -72 -250 -16 -125 6 -320 47 -412 8 -17 14
-34 14 -38 0 -12 64 -100 108 -147 43 -46 44 -48 20 -48 -29 0 -53 -23 -45
-43 6 -15 168 -47 240 -47 25 0 56 -4 69 -10 13 -5 82 -16 153 -23 108 -11
148 -11 235 -1 126 16 168 28 240 67 68 37 308 252 359 321 124 169 154 206
206 254 31 28 61 52 65 52 5 0 40 -16 78 -36 79 -39 68 -19 93 -189 5 -38 15
-100 21 -137 6 -39 8 -109 4 -170 -3 -57 -9 -146 -12 -199 -6 -92 -6 -97 16
-112 32 -22 61 -10 241 108 161 106 263 195 337 296 44 59 122 217 122 247 0
10 4 22 9 27 12 13 33 126 38 204 5 60 8 67 49 107 24 24 60 52 81 62 96 49
450 71 571 36 120 -34 238 -136 319 -274 37 -61 84 -222 105 -354 14 -88 22
-505 9 -530 -5 -12 -12 -34 -16 -49 -11 -50 -62 -151 -111 -217 -218 -296
-415 -397 -783 -401 -93 0 -146 3 -166 12 -61 27 -125 71 -125 86 0 9 16 39
35 68 45 69 59 100 51 120 -10 26 -47 14 -66 -22 -83 -156 -293 -345 -570
-515 -121 -74 -388 -210 -505 -257 -81 -33 -93 -37 -155 -64 -19 -8 -69 -27
-110 -41 -41 -15 -84 -30 -95 -35 -19 -9 -210 -70 -325 -105 -54 -16 -67 -20
-185 -51 -33 -9 -74 -20 -91 -25 -16 -6 -50 -14 -75 -19 -80 -18 -193 -43
-234 -52 -144 -34 -391 -77 -590 -105 -202 -28 -249 -34 -365 -44 -63 -6 -164
-16 -225 -22 -148 -17 -969 -17 -1080 -1 -44 7 -129 17 -190 23 -113 11 -147
16 -295 44 -120 22 -166 32 -235 51 -33 9 -73 20 -90 24 -85 22 -244 84 -336
131 -127 65 -189 109 -271 190 -83 84 -102 114 -143 234 -23 69 -26 89 -20
145 9 91 42 215 70 266 25 46 105 163 134 195 44 50 41 87 -9 154 -22 29 -40
56 -40 60 0 3 -29 52 -63 109 -91 146 -127 213 -127 235 0 17 148 172 165 172
4 0 32 -21 62 -47 67 -59 213 -152 311 -199 68 -33 147 -84 248 -159 42 -32
139 -79 289 -142 151 -62 293 -56 490 21 51 20 380 184 480 239 17 9 35 17 40
17 6 0 23 11 39 23 47 38 13 77 -42 48 -63 -33 -118 -50 -110 -33 95 188 113
266 106 450 -2 61 -2 112 0 112 3 0 39 -25 79 -56 82 -62 159 -102 378 -199
33 -15 74 -33 90 -40 27 -12 85 -28 158 -42 32 -6 57 11 57 39 0 18 -20 89
-41 143 -8 21 -29 109 -29 120 0 4 27 -19 61 -52 56 -54 174 -142 294 -218 28
-18 93 -49 145 -70 52 -20 111 -45 130 -54 61 -30 263 -70 294 -58 23 9 20 38
-10 95 -14 27 -30 80 -35 118 -15 106 -35 222 -53 299 -46 193 -67 320 -73
425 l-5 85 73 53 c67 49 99 63 99 44z m1385 -183 c63 -44 115 -83 115 -85 0
-17 -89 -176 -119 -213 -20 -24 -40 -52 -46 -61 -18 -31 -125 -144 -130 -138
-5 5 2 28 26 83 51 116 64 383 24 478 -13 31 12 19 130 -64z m374 -111 c1 -20
-29 -24 -60 -8 -26 14 -24 29 8 62 l28 29 12 -33 c6 -18 12 -41 12 -50z
m-3717 5 c39 -58 138 -173 196 -227 71 -67 84 -112 84 -305 1 -125 -2 -155
-21 -206 -42 -115 -139 -255 -178 -255 -10 0 -32 -15 -49 -32 -17 -18 -73 -53
-125 -77 -52 -24 -102 -48 -111 -52 -37 -18 -201 -49 -262 -49 -60 0 -68 3
-113 39 -70 56 -184 178 -226 241 -20 30 -47 85 -61 121 -32 85 -63 246 -50
259 5 5 25 5 52 -1 44 -10 66 -7 140 17 83 27 131 65 176 137 35 58 11 237
-39 291 l-21 23 91 32 c140 51 275 79 391 80 l101 1 25 -37z m-628 -96 c40
-40 72 -153 62 -219 -8 -51 -53 -127 -91 -152 -82 -54 -222 -70 -253 -30 -22
30 -8 65 76 191 43 65 90 136 105 158 15 22 31 46 37 53 14 16 48 16 64 -1z
m-316 -175 c-37 -104 -47 -178 -38 -298 13 -172 47 -270 142 -413 49 -73 49
-73 21 -66 -43 10 -189 111 -281 195 -258 232 -324 308 -303 348 15 27 132
135 166 152 17 8 58 32 93 52 34 21 65 38 69 38 3 0 29 11 57 24 97 46 101 44
74 -32z m-753 -777 c19 -31 35 -58 35 -60 0 -3 32 -57 71 -121 60 -98 69 -117
56 -127 -45 -36 -163 -229 -185 -302 -37 -122 -54 -299 -32 -321 5 -5 13 -31
16 -57 l7 -47 -43 22 c-55 29 -129 102 -179 177 -28 43 -41 77 -50 127 -7 38
-16 94 -21 125 -18 104 -11 195 29 356 22 85 95 200 154 240 86 58 98 57 142
-12z m4228 -1517 c5 -53 5 -53 -46 -106 -29 -29 -74 -68 -102 -87 -27 -19 -81
-57 -120 -85 -91 -65 -240 -159 -271 -170 -48 -18 -121 -52 -239 -111 -66 -32
-124 -59 -129 -59 -20 0 -137 94 -217 173 l-86 86 -6 93 c-3 51 -5 93 -4 94 1
1 45 8 97 14 52 7 118 16 145 20 28 4 86 13 130 19 44 6 103 15 130 21 28 5
100 19 160 31 201 39 293 58 395 84 80 21 131 32 146 34 7 1 14 -21 17 -51z
m106 -227 c53 -88 58 -104 41 -155 -5 -17 -24 -78 -41 -136 -18 -58 -35 -109
-39 -115 -4 -5 -25 -53 -46 -105 -21 -52 -50 -106 -64 -119 -20 -19 -137 -113
-185 -149 -133 -99 -200 -142 -210 -138 -8 3 -33 31 -56 63 -70 96 -316 385
-344 405 -5 4 -7 8 -5 10 42 28 264 138 279 138 21 0 191 95 242 135 14 11 35
26 45 32 86 56 236 169 269 202 46 48 42 51 114 -68z m-1233 -303 c42 -40 96
-86 120 -102 24 -15 44 -34 44 -42 0 -17 -95 -201 -142 -274 -19 -30 -47 -79
-63 -107 -15 -29 -32 -53 -36 -53 -4 0 -9 72 -11 161 -4 188 1 489 8 489 3 0
39 -33 80 -72z m307 -275 c37 -43 87 -100 111 -128 75 -83 75 -82 20 -165
l-48 -73 -105 6 c-77 4 -108 9 -116 20 -6 8 -24 53 -39 99 l-29 84 24 39 c14
22 42 75 63 118 21 42 42 77 46 77 4 0 37 -35 73 -77z m737 -188 c0 -4 -13
-37 -31 -80 -5 -11 -22 -56 -39 -100 -17 -44 -37 -93 -44 -110 -13 -27 -42
-102 -82 -208 -16 -42 -132 -286 -222 -466 -31 -63 -61 -113 -67 -113 -6 1
-13 52 -16 117 -4 63 -10 127 -14 142 -9 37 -23 126 -40 253 -7 58 -21 158
-30 223 l-16 117 25 30 c13 17 35 48 47 70 13 22 26 40 30 40 3 0 25 -25 48
-55 57 -76 82 -91 122 -75 16 7 94 59 172 116 131 95 157 112 157 99z m-962
-139 c17 -46 32 -91 32 -101 0 -9 -11 -41 -25 -71 -14 -30 -25 -57 -25 -60 0
-3 -7 -22 -17 -42 -83 -186 -89 -199 -104 -244 -7 -20 -16 -35 -21 -32 -4 3
-8 115 -8 250 0 230 1 244 18 244 24 0 43 22 76 88 14 28 30 52 34 52 4 0 22
-38 40 -84z"/>
<path d="M5450 4663 c-8 -4 -33 -17 -55 -31 -95 -60 -147 -72 -308 -72 l-150
0 -108 -60 c-127 -71 -192 -100 -223 -100 -26 0 -56 53 -56 100 0 33 -27 54
-50 40 -37 -23 7 -168 59 -195 22 -11 29 -27 44 -97 10 -45 23 -99 28 -118 5
-19 13 -60 19 -90 14 -86 28 -144 41 -176 6 -16 15 -38 20 -49 48 -118 122
-257 163 -304 28 -32 110 -83 166 -104 60 -22 252 -23 364 -1 145 27 194 45
237 86 22 21 44 38 49 38 5 0 32 22 59 49 59 58 104 143 125 235 21 87 21 241
0 314 -41 149 -158 328 -341 519 -21 22 -51 28 -83 16z m96 -126 c77 -83 114
-130 155 -197 18 -30 36 -57 39 -60 13 -11 60 -119 71 -165 12 -47 16 -202 6
-262 -6 -41 -18 -83 -33 -112 -8 -14 -14 -32 -14 -38 0 -7 -4 -13 -10 -13 -5
0 -10 -6 -10 -13 0 -20 -67 -79 -142 -125 -38 -23 -70 -43 -73 -43 -24 -4 -45
-13 -45 -19 0 -4 -19 -11 -42 -14 -24 -4 -59 -9 -78 -11 -71 -11 -251 -17
-268 -9 -9 4 -21 9 -27 9 -37 6 -103 41 -138 74 -29 26 -63 80 -59 94 1 4 -3
7 -8 7 -6 0 -10 6 -10 14 0 8 -3 16 -7 18 -8 3 -34 54 -71 138 -31 69 -35 84
-33 102 1 9 -3 19 -9 23 -5 3 -10 19 -10 35 0 16 -4 32 -10 35 -5 3 -9 16 -9
28 0 12 -4 47 -11 77 -6 30 -13 69 -16 85 -3 17 -10 39 -15 51 -6 11 -9 24 -8
30 2 5 -1 19 -5 32 -9 26 10 46 54 57 14 4 27 10 30 13 3 4 37 23 75 42 39 19
72 38 73 42 2 5 10 8 17 8 7 0 15 6 17 13 4 9 48 12 176 12 120 1 175 4 184
13 7 7 18 12 26 12 14 0 101 39 112 50 10 10 45 29 56 29 6 1 37 -28 70 -62z"/>
</g>
</svg>
